<?xml version="1.0" encoding="us-ascii" standalone="no"?><svg xmlns="http://www.w3.org/2000/svg" xmlns:xlink="http://www.w3.org/1999/xlink" contentStyleType="text/css" height="220.1px" preserveAspectRatio="none" style="width:472px;height:220px;background:#FFFFFF;" version="1.1" viewBox="0 0 472 220" width="472.44px" zoomAndPan="magnify"><defs/><g><!--cluster com--><g id="cluster_com"><path d="M2.635,1.8642 L11.935,1.8642 A1.1625,1.1625 0 0 1 12.71,2.6392 L14.88,9.4968 L469.495,9.4968 A0.775,0.775 0 0 1 470.27,10.2718 L470.27,217.1592 A0.775,0.775 0 0 1 469.495,217.9342 L2.635,217.9342 A0.775,0.775 0 0 1 1.86,217.1592 L1.86,2.6392 A0.775,0.775 0 0 1 2.635,1.8642 " fill="none" style="stroke:#000000;stroke-width:0.46499999999999997;"/><line style="stroke:#000000;stroke-width:0.46499999999999997;" x1="1.86" x2="14.88" y1="9.4968" y2="9.4968"/><text fill="#000000" font-family="sans-serif" font-size="4.34" font-weight="bold" lengthAdjust="spacing" textLength="8.99" x="3.1" y="7.1675">com</text></g><!--cluster example--><g id="cluster_example"><path d="M10.075,15.8142 L28.675,15.8142 A1.1625,1.1625 0 0 1 29.45,16.5892 L31.62,23.4468 L462.055,23.4468 A0.775,0.775 0 0 1 462.83,24.2218 L462.83,209.7192 A0.775,0.775 0 0 1 462.055,210.4942 L10.075,210.4942 A0.775,0.775 0 0 1 9.3,209.7192 L9.3,16.5892 A0.775,0.775 0 0 1 10.075,15.8142 " fill="none" style="stroke:#000000;stroke-width:0.46499999999999997;"/><line style="stroke:#000000;stroke-width:0.46499999999999997;" x1="9.3" x2="31.62" y1="23.4468" y2="23.4468"/><text fill="#000000" font-family="sans-serif" font-size="4.34" font-weight="bold" lengthAdjust="spacing" textLength="18.29" x="10.54" y="21.1175">example</text></g><!--cluster itamusic--><g id="cluster_itamusic"><path d="M17.515,29.7642 L35.805,29.7642 A1.1625,1.1625 0 0 1 36.58,30.5392 L38.75,37.3968 L454.615,37.3968 A0.775,0.775 0 0 1 455.39,38.1718 L455.39,202.2792 A0.775,0.775 0 0 1 454.615,203.0542 L17.515,203.0542 A0.775,0.775 0 0 1 16.74,202.2792 L16.74,30.5392 A0.775,0.775 0 0 1 17.515,29.7642 " fill="none" style="stroke:#000000;stroke-width:0.46499999999999997;"/><line style="stroke:#000000;stroke-width:0.46499999999999997;" x1="16.74" x2="38.75" y1="37.3968" y2="37.3968"/><text fill="#000000" font-family="sans-serif" font-size="4.34" font-weight="bold" lengthAdjust="spacing" textLength="17.98" x="17.98" y="35.0675">itamusic</text></g><!--class ViewPagerAdapter--><g id="elem_ViewPagerAdapter"><rect codeLine="1" fill="#F1F1F1" height="49.5152" id="ViewPagerAdapter" rx="0.775" ry="0.775" style="stroke:#181818;stroke-width:0.155;" width="135.16" x="21.7" y="86.1842"/><ellipse cx="69.8275" cy="91.1442" fill="#ADD1B2" rx="3.41" ry="3.41" style="stroke:#181818;stroke-width:0.31;"/><path d="M70.6848,89.8655 Q70.7333,89.7977 70.7914,89.7638 Q70.8495,89.7299 70.9173,89.7299 Q71.0336,89.7299 71.1063,89.8122 Q71.1789,89.8897 71.1789,90.0786 L71.1789,90.5291 Q71.1789,90.718 71.1063,90.8003 Q71.0336,90.8827 70.9173,90.8827 Q70.8108,90.8827 70.7478,90.8197 Q70.6848,90.7616 70.6509,90.6017 Q70.6364,90.4903 70.5783,90.4322 Q70.4766,90.316 70.2877,90.2481 Q70.0988,90.1803 69.905,90.1803 Q69.6677,90.1803 69.4691,90.2821 Q69.2753,90.3838 69.1203,90.6163 Q68.9702,90.8488 68.9702,91.1685 L68.9702,91.5075 Q68.9702,91.8902 69.2463,92.1469 Q69.5223,92.3988 70.0164,92.3988 Q70.307,92.3988 70.5105,92.3213 Q70.6316,92.2728 70.7623,92.1372 Q70.8447,92.0549 70.8883,92.0306 Q70.9367,92.0064 70.9997,92.0064 Q71.1014,92.0064 71.1789,92.0888 Q71.2613,92.1663 71.2613,92.2728 Q71.2613,92.3794 71.1547,92.5053 Q70.9997,92.6846 70.7527,92.7863 Q70.4184,92.9267 70.0164,92.9267 Q69.5466,92.9267 69.1736,92.733 Q68.8684,92.578 68.6553,92.2486 Q68.4422,91.9144 68.4422,91.5172 L68.4422,91.1588 Q68.4422,90.7471 68.6311,90.3935 Q68.8248,90.035 69.1639,89.8461 Q69.503,89.6524 69.8856,89.6524 Q70.1133,89.6524 70.3119,89.7056 Q70.5153,89.7541 70.6848,89.8655 Z " fill="#000000"/><text fill="#000000" font-family="sans-serif" font-size="4.34" lengthAdjust="spacing" textLength="36.27" x="76.1825" y="92.9413">ViewPagerAdapter</text><line style="stroke:#181818;stroke-width:0.155;" x1="22.01" x2="156.55" y1="96.1042" y2="96.1042"/><ellipse cx="25.11" cy="100.6955" fill="#000000" rx="0.93" ry="0.93" style="stroke:#000000;stroke-width:0.31;"/><text fill="#000000" font-family="sans-serif" font-size="4.34" lengthAdjust="spacing" textLength="55.18" x="27.9" y="102.0275">ArrayList&lt;String&gt; pagesText</text><ellipse cx="25.11" cy="106.468" fill="#000000" rx="0.93" ry="0.93" style="stroke:#000000;stroke-width:0.31;"/><text fill="#000000" font-family="sans-serif" font-size="4.34" lengthAdjust="spacing" textLength="59.21" x="27.9" y="107.8001">ArrayList&lt;Object&gt; pagesNotes</text><line style="stroke:#181818;stroke-width:0.155;" x1="22.01" x2="156.55" y1="110.1293" y2="110.1293"/><ellipse cx="25.11" cy="114.7206" fill="#84BE84" rx="0.93" ry="0.93" style="stroke:#038048;stroke-width:0.31;"/><text fill="#000000" font-family="sans-serif" font-size="4.34" lengthAdjust="spacing" textLength="127.1" x="27.9" y="116.0526">&#171;Create&#187; ViewPagerAdapter(ArrayList&lt;String&gt;,ArrayList&lt;Object&gt;)</text><ellipse cx="25.11" cy="120.4931" fill="#84BE84" rx="0.93" ry="0.93" style="stroke:#038048;stroke-width:0.31;"/><text fill="#000000" font-family="sans-serif" font-size="4.34" lengthAdjust="spacing" textLength="91.45" x="27.9" y="121.8252">ViewHolder onCreateViewHolder(ViewGroup,int)</text><ellipse cx="25.11" cy="126.2657" fill="#84BE84" rx="0.93" ry="0.93" style="stroke:#038048;stroke-width:0.31;"/><text fill="#000000" font-family="sans-serif" font-size="4.34" lengthAdjust="spacing" textLength="73.47" x="27.9" y="127.5977">void onBindViewHolder(ViewHolder,int)</text><ellipse cx="25.11" cy="132.0382" fill="#84BE84" rx="0.93" ry="0.93" style="stroke:#038048;stroke-width:0.31;"/><text fill="#000000" font-family="sans-serif" font-size="4.34" lengthAdjust="spacing" textLength="33.48" x="27.9" y="133.3702">int getItemCount()</text></g><!--class ViewPagerAdapter$ViewHolder--><g id="elem_ViewPagerAdapter$ViewHolder"><rect codeLine="11" fill="#F1F1F1" height="32.1976" id="ViewPagerAdapter$ViewHolder" rx="0.775" ry="0.775" style="stroke:#181818;stroke-width:0.155;" width="69.75" x="63.705" y="165.8542"/><ellipse cx="68.355" cy="170.8142" fill="#ADD1B2" rx="3.41" ry="3.41" style="stroke:#181818;stroke-width:0.31;"/><path d="M69.2123,169.5355 Q69.2608,169.4677 69.3189,169.4338 Q69.377,169.3999 69.4448,169.3999 Q69.5611,169.3999 69.6338,169.4822 Q69.7064,169.5597 69.7064,169.7486 L69.7064,170.1991 Q69.7064,170.388 69.6338,170.4703 Q69.5611,170.5527 69.4448,170.5527 Q69.3383,170.5527 69.2753,170.4897 Q69.2123,170.4316 69.1784,170.2717 Q69.1639,170.1603 69.1058,170.1022 Q69.0041,169.986 68.8152,169.9181 Q68.6263,169.8503 68.4325,169.8503 Q68.1952,169.8503 67.9966,169.9521 Q67.8028,170.0538 67.6478,170.2863 Q67.4977,170.5188 67.4977,170.8385 L67.4977,171.1775 Q67.4977,171.5602 67.7737,171.8169 Q68.0498,172.0688 68.5439,172.0688 Q68.8345,172.0688 69.038,171.9913 Q69.1591,171.9428 69.2898,171.8072 Q69.3722,171.7249 69.4158,171.7006 Q69.4642,171.6764 69.5272,171.6764 Q69.6289,171.6764 69.7064,171.7588 Q69.7888,171.8363 69.7888,171.9428 Q69.7888,172.0494 69.6822,172.1753 Q69.5272,172.3546 69.2802,172.4563 Q68.9459,172.5967 68.5439,172.5967 Q68.0741,172.5967 67.7011,172.403 Q67.3959,172.248 67.1828,171.9186 Q66.9697,171.5844 66.9697,171.1872 L66.9697,170.8288 Q66.9697,170.4171 67.1586,170.0635 Q67.3523,169.705 67.6914,169.5161 Q68.0305,169.3224 68.4131,169.3224 Q68.6408,169.3224 68.8394,169.3756 Q69.0428,169.4241 69.2123,169.5355 Z " fill="#000000"/><text fill="#000000" font-family="sans-serif" font-size="4.34" lengthAdjust="spacing" textLength="59.83" x="72.695" y="172.6113">ViewPagerAdapter$ViewHolder</text><line style="stroke:#181818;stroke-width:0.155;" x1="64.015" x2="133.145" y1="175.7742" y2="175.7742"/><polygon fill="none" points="67.115,179.1255,65.875,180.9855,68.355,180.9855" style="stroke:#1963A0;stroke-width:0.31;"/><text fill="#000000" font-family="sans-serif" font-size="4.34" lengthAdjust="spacing" textLength="40.92" x="69.905" y="181.6975">NotesView notesView</text><polygon fill="none" points="67.115,184.898,65.875,186.758,68.355,186.758" style="stroke:#1963A0;stroke-width:0.31;"/><text fill="#000000" font-family="sans-serif" font-size="4.34" lengthAdjust="spacing" textLength="28.83" x="69.905" y="187.4701">TextView tvInfo</text><line style="stroke:#181818;stroke-width:0.155;" x1="64.015" x2="133.145" y1="189.7993" y2="189.7993"/><ellipse cx="67.115" cy="194.3906" fill="#84BE84" rx="0.93" ry="0.93" style="stroke:#038048;stroke-width:0.31;"/><text fill="#000000" font-family="sans-serif" font-size="4.34" lengthAdjust="spacing" textLength="51.77" x="69.905" y="195.7226">&#171;Create&#187; ViewHolder(View)</text></g><!--class ChatAdapter--><g id="elem_ChatAdapter"><rect codeLine="17" fill="#F1F1F1" height="72.6054" id="ChatAdapter" rx="0.775" ry="0.775" style="stroke:#181818;stroke-width:0.155;" width="109.74" x="210.18" y="74.7142"/><ellipse cx="251.3325" cy="79.6742" fill="#ADD1B2" rx="3.41" ry="3.41" style="stroke:#181818;stroke-width:0.31;"/><path d="M252.1898,78.3955 Q252.2383,78.3277 252.2964,78.2938 Q252.3545,78.2599 252.4223,78.2599 Q252.5386,78.2599 252.6112,78.3422 Q252.6839,78.4197 252.6839,78.6086 L252.6839,79.0591 Q252.6839,79.248 252.6112,79.3303 Q252.5386,79.4127 252.4223,79.4127 Q252.3158,79.4127 252.2528,79.3497 Q252.1898,79.2916 252.1559,79.1317 Q252.1414,79.0203 252.0833,78.9622 Q251.9816,78.846 251.7927,78.7781 Q251.6038,78.7103 251.41,78.7103 Q251.1727,78.7103 250.9741,78.8121 Q250.7803,78.9138 250.6253,79.1463 Q250.4752,79.3788 250.4752,79.6985 L250.4752,80.0375 Q250.4752,80.4202 250.7513,80.6769 Q251.0273,80.9288 251.5214,80.9288 Q251.812,80.9288 252.0155,80.8513 Q252.1366,80.8028 252.2673,80.6672 Q252.3497,80.5849 252.3933,80.5606 Q252.4417,80.5364 252.5047,80.5364 Q252.6064,80.5364 252.6839,80.6188 Q252.7662,80.6963 252.7662,80.8028 Q252.7662,80.9094 252.6597,81.0353 Q252.5047,81.2146 252.2577,81.3163 Q251.9234,81.4567 251.5214,81.4567 Q251.0516,81.4567 250.6786,81.263 Q250.3734,81.108 250.1603,80.7786 Q249.9472,80.4444 249.9472,80.0472 L249.9472,79.6888 Q249.9472,79.2771 250.1361,78.9235 Q250.3298,78.565 250.6689,78.3761 Q251.008,78.1824 251.3906,78.1824 Q251.6183,78.1824 251.8169,78.2356 Q252.0203,78.2841 252.1898,78.3955 Z " fill="#000000"/><text fill="#000000" font-family="sans-serif" font-size="4.34" lengthAdjust="spacing" textLength="24.8" x="257.6875" y="81.4713">ChatAdapter</text><line style="stroke:#181818;stroke-width:0.155;" x1="210.49" x2="319.61" y1="84.6342" y2="84.6342"/><ellipse cx="213.59" cy="89.2255" fill="#000000" rx="0.93" ry="0.93" style="stroke:#000000;stroke-width:0.31;"/><text fill="#000000" font-family="sans-serif" font-size="4.34" lengthAdjust="spacing" textLength="60.76" x="216.38" y="90.5575">ArrayList&lt;Message&gt; messages</text><ellipse cx="213.59" cy="94.998" fill="#000000" rx="0.93" ry="0.93" style="stroke:#000000;stroke-width:0.31;"/><text fill="#000000" font-family="sans-serif" font-size="4.34" lengthAdjust="spacing" textLength="29.76" x="216.38" y="96.3301">Context context</text><ellipse cx="213.59" cy="100.7706" fill="#000000" rx="0.93" ry="0.93" style="stroke:#000000;stroke-width:0.31;"/><text fill="#000000" font-family="sans-serif" font-size="4.34" lengthAdjust="spacing" textLength="37.51" x="216.38" y="102.1026">int selectedPosition</text><polygon fill="none" points="213.59,104.9931,214.83,106.2331,213.59,107.4731,212.35,106.2331" style="stroke:#B38D22;stroke-width:0.31;"/><text fill="#000000" font-family="sans-serif" font-size="4.34" lengthAdjust="spacing" textLength="37.2" x="216.38" y="107.8752">String selectedText</text><line style="stroke:#181818;stroke-width:0.155;" x1="210.49" x2="319.61" y1="110.2044" y2="110.2044"/><ellipse cx="213.59" cy="114.7957" fill="#84BE84" rx="0.93" ry="0.93" style="stroke:#038048;stroke-width:0.31;"/><text fill="#000000" font-family="sans-serif" font-size="4.34" lengthAdjust="spacing" textLength="101.68" x="216.38" y="116.1277">&#171;Create&#187; ChatAdapter(Context,ArrayList&lt;Message&gt;)</text><ellipse cx="213.59" cy="120.5682" fill="#84BE84" rx="0.93" ry="0.93" style="stroke:#038048;stroke-width:0.31;"/><text fill="#000000" font-family="sans-serif" font-size="4.34" lengthAdjust="spacing" textLength="91.45" x="216.38" y="121.9002">ViewHolder onCreateViewHolder(ViewGroup,int)</text><ellipse cx="213.59" cy="126.3407" fill="#84BE84" rx="0.93" ry="0.93" style="stroke:#038048;stroke-width:0.31;"/><text fill="#000000" font-family="sans-serif" font-size="4.34" lengthAdjust="spacing" textLength="73.47" x="216.38" y="127.6728">void onBindViewHolder(ViewHolder,int)</text><ellipse cx="213.59" cy="132.1133" fill="#84BE84" rx="0.93" ry="0.93" style="stroke:#038048;stroke-width:0.31;"/><text fill="#000000" font-family="sans-serif" font-size="4.34" lengthAdjust="spacing" textLength="45.26" x="216.38" y="133.4453">int getItemViewType(int)</text><ellipse cx="213.59" cy="137.8858" fill="#84BE84" rx="0.93" ry="0.93" style="stroke:#038048;stroke-width:0.31;"/><text fill="#000000" font-family="sans-serif" font-size="4.34" lengthAdjust="spacing" textLength="33.48" x="216.38" y="139.2179">int getItemCount()</text><ellipse cx="213.59" cy="143.6584" fill="#000000" rx="0.93" ry="0.93" style="stroke:#000000;stroke-width:0.31;"/><text fill="#000000" font-family="sans-serif" font-size="4.34" lengthAdjust="spacing" textLength="55.8" x="216.38" y="144.9904">void copyToClipboard(String)</text></g><!--class ChatAdapter$ViewHolder--><g id="elem_ChatAdapter$ViewHolder"><rect codeLine="31" fill="#F1F1F1" height="26.4251" id="ChatAdapter$ViewHolder" rx="0.775" ry="0.775" style="stroke:#181818;stroke-width:0.155;" width="59.83" x="186.775" y="168.7992"/><ellipse cx="192.1225" cy="173.7592" fill="#ADD1B2" rx="3.41" ry="3.41" style="stroke:#181818;stroke-width:0.31;"/><path d="M192.9798,172.4805 Q193.0283,172.4127 193.0864,172.3788 Q193.1445,172.3449 193.2123,172.3449 Q193.3286,172.3449 193.4013,172.4272 Q193.4739,172.5047 193.4739,172.6936 L193.4739,173.1441 Q193.4739,173.333 193.4013,173.4153 Q193.3286,173.4977 193.2123,173.4977 Q193.1058,173.4977 193.0428,173.4347 Q192.9798,173.3766 192.9459,173.2167 Q192.9314,173.1053 192.8733,173.0472 Q192.7716,172.931 192.5827,172.8631 Q192.3938,172.7953 192.2,172.7953 Q191.9627,172.7953 191.7641,172.8971 Q191.5703,172.9988 191.4153,173.2313 Q191.2652,173.4638 191.2652,173.7835 L191.2652,174.1225 Q191.2652,174.5052 191.5413,174.7619 Q191.8173,175.0138 192.3114,175.0138 Q192.602,175.0138 192.8055,174.9363 Q192.9266,174.8878 193.0573,174.7522 Q193.1397,174.6699 193.1833,174.6456 Q193.2317,174.6214 193.2947,174.6214 Q193.3964,174.6214 193.4739,174.7038 Q193.5563,174.7813 193.5563,174.8878 Q193.5563,174.9944 193.4497,175.1203 Q193.2947,175.2996 193.0477,175.4013 Q192.7134,175.5417 192.3114,175.5417 Q191.8416,175.5417 191.4686,175.348 Q191.1634,175.193 190.9503,174.8636 Q190.7372,174.5294 190.7372,174.1322 L190.7372,173.7738 Q190.7372,173.3621 190.9261,173.0085 Q191.1198,172.65 191.4589,172.4611 Q191.798,172.2674 192.1806,172.2674 Q192.4083,172.2674 192.6069,172.3206 Q192.8103,172.3691 192.9798,172.4805 Z " fill="#000000"/><text fill="#000000" font-family="sans-serif" font-size="4.34" lengthAdjust="spacing" textLength="48.36" x="196.6175" y="175.5563">ChatAdapter$ViewHolder</text><line style="stroke:#181818;stroke-width:0.155;" x1="187.085" x2="246.295" y1="178.7192" y2="178.7192"/><polygon fill="none" points="190.185,182.0705,188.945,183.9305,191.425,183.9305" style="stroke:#1963A0;stroke-width:0.31;"/><text fill="#000000" font-family="sans-serif" font-size="4.34" lengthAdjust="spacing" textLength="44.33" x="192.975" y="184.6425">TextView messageText</text><line style="stroke:#181818;stroke-width:0.155;" x1="187.085" x2="246.295" y1="186.9718" y2="186.9718"/><ellipse cx="190.185" cy="191.563" fill="#84BE84" rx="0.93" ry="0.93" style="stroke:#038048;stroke-width:0.31;"/><text fill="#000000" font-family="sans-serif" font-size="4.34" lengthAdjust="spacing" textLength="51.77" x="192.975" y="192.8951">&#171;Create&#187; ViewHolder(View)</text></g><!--class ChatNoteAdapter--><g id="elem_ChatNoteAdapter"><rect codeLine="36" fill="#F1F1F1" height="61.0603" id="ChatNoteAdapter" rx="0.775" ry="0.775" style="stroke:#181818;stroke-width:0.155;" width="119.35" x="330.925" y="80.4492"/><ellipse cx="372.3875" cy="85.4092" fill="#ADD1B2" rx="3.41" ry="3.41" style="stroke:#181818;stroke-width:0.31;"/><path d="M373.2448,84.1305 Q373.2933,84.0627 373.3514,84.0288 Q373.4095,83.9949 373.4773,83.9949 Q373.5936,83.9949 373.6663,84.0772 Q373.7389,84.1547 373.7389,84.3436 L373.7389,84.7941 Q373.7389,84.983 373.6663,85.0653 Q373.5936,85.1477 373.4773,85.1477 Q373.3708,85.1477 373.3078,85.0847 Q373.2448,85.0266 373.2109,84.8667 Q373.1964,84.7553 373.1383,84.6972 Q373.0366,84.581 372.8477,84.5131 Q372.6588,84.4453 372.465,84.4453 Q372.2277,84.4453 372.0291,84.5471 Q371.8353,84.6488 371.6803,84.8813 Q371.5302,85.1138 371.5302,85.4335 L371.5302,85.7725 Q371.5302,86.1552 371.8063,86.4119 Q372.0823,86.6638 372.5764,86.6638 Q372.867,86.6638 373.0705,86.5863 Q373.1916,86.5378 373.3223,86.4022 Q373.4047,86.3199 373.4483,86.2956 Q373.4967,86.2714 373.5597,86.2714 Q373.6614,86.2714 373.7389,86.3538 Q373.8213,86.4313 373.8213,86.5378 Q373.8213,86.6444 373.7147,86.7703 Q373.5597,86.9496 373.3127,87.0513 Q372.9784,87.1917 372.5764,87.1917 Q372.1066,87.1917 371.7336,86.998 Q371.4284,86.843 371.2153,86.5136 Q371.0022,86.1794 371.0022,85.7822 L371.0022,85.4238 Q371.0022,85.0121 371.1911,84.6585 Q371.3848,84.3 371.7239,84.1111 Q372.063,83.9174 372.4456,83.9174 Q372.6733,83.9174 372.8719,83.9706 Q373.0753,84.0191 373.2448,84.1305 Z " fill="#000000"/><text fill="#000000" font-family="sans-serif" font-size="4.34" lengthAdjust="spacing" textLength="33.79" x="378.7425" y="87.2063">ChatNoteAdapter</text><line style="stroke:#181818;stroke-width:0.155;" x1="331.235" x2="449.965" y1="90.3692" y2="90.3692"/><ellipse cx="334.335" cy="94.9605" fill="#000000" rx="0.93" ry="0.93" style="stroke:#000000;stroke-width:0.31;"/><text fill="#000000" font-family="sans-serif" font-size="4.34" lengthAdjust="spacing" textLength="61.07" x="337.125" y="96.2925">ArrayList&lt;ChatNote&gt; chatNotes</text><ellipse cx="334.335" cy="100.733" fill="#000000" rx="0.93" ry="0.93" style="stroke:#000000;stroke-width:0.31;"/><text fill="#000000" font-family="sans-serif" font-size="4.34" lengthAdjust="spacing" textLength="29.76" x="337.125" y="102.0651">Context context</text><polygon fill="none" points="334.335,104.9556,335.575,106.1956,334.335,107.4356,333.095,106.1956" style="stroke:#B38D22;stroke-width:0.31;"/><text fill="#000000" font-family="sans-serif" font-size="4.34" lengthAdjust="spacing" textLength="37.51" x="337.125" y="107.8376">int selectedPosition</text><line style="stroke:#181818;stroke-width:0.155;" x1="331.235" x2="449.965" y1="110.1669" y2="110.1669"/><ellipse cx="334.335" cy="114.7581" fill="#84BE84" rx="0.93" ry="0.93" style="stroke:#038048;stroke-width:0.31;"/><text fill="#000000" font-family="sans-serif" font-size="4.34" lengthAdjust="spacing" textLength="111.29" x="337.125" y="116.0902">&#171;Create&#187; ChatNoteAdapter(Context,ArrayList&lt;ChatNote&gt;)</text><ellipse cx="334.335" cy="120.5307" fill="#84BE84" rx="0.93" ry="0.93" style="stroke:#038048;stroke-width:0.31;"/><text fill="#000000" font-family="sans-serif" font-size="4.34" lengthAdjust="spacing" textLength="91.45" x="337.125" y="121.8627">ViewHolder onCreateViewHolder(ViewGroup,int)</text><ellipse cx="334.335" cy="126.3032" fill="#84BE84" rx="0.93" ry="0.93" style="stroke:#038048;stroke-width:0.31;"/><text fill="#000000" font-family="sans-serif" font-size="4.34" lengthAdjust="spacing" textLength="73.47" x="337.125" y="127.6352">void onBindViewHolder(ViewHolder,int)</text><ellipse cx="334.335" cy="132.0757" fill="#84BE84" rx="0.93" ry="0.93" style="stroke:#038048;stroke-width:0.31;"/><text fill="#000000" font-family="sans-serif" font-size="4.34" lengthAdjust="spacing" textLength="33.48" x="337.125" y="133.4078">int getItemCount()</text><ellipse cx="334.335" cy="137.8483" fill="#000000" rx="0.93" ry="0.93" style="stroke:#000000;stroke-width:0.31;"/><text fill="#000000" font-family="sans-serif" font-size="4.34" lengthAdjust="spacing" textLength="55.8" x="337.125" y="139.1803">void copyToClipboard(String)</text></g><!--class ChatNoteAdapter$ViewHolder--><g id="elem_ChatNoteAdapter$ViewHolder"><rect codeLine="48" fill="#F1F1F1" height="26.4251" id="ChatNoteAdapter$ViewHolder" rx="0.775" ry="0.775" style="stroke:#181818;stroke-width:0.155;" width="67.27" x="323.795" y="168.7992"/><ellipse cx="328.445" cy="173.7592" fill="#ADD1B2" rx="3.41" ry="3.41" style="stroke:#181818;stroke-width:0.31;"/><path d="M329.3023,172.4805 Q329.3508,172.4127 329.4089,172.3788 Q329.467,172.3449 329.5348,172.3449 Q329.6511,172.3449 329.7238,172.4272 Q329.7964,172.5047 329.7964,172.6936 L329.7964,173.1441 Q329.7964,173.333 329.7238,173.4153 Q329.6511,173.4977 329.5348,173.4977 Q329.4283,173.4977 329.3653,173.4347 Q329.3023,173.3766 329.2684,173.2167 Q329.2539,173.1053 329.1958,173.0472 Q329.0941,172.931 328.9052,172.8631 Q328.7163,172.7953 328.5225,172.7953 Q328.2852,172.7953 328.0866,172.8971 Q327.8928,172.9988 327.7378,173.2313 Q327.5877,173.4638 327.5877,173.7835 L327.5877,174.1225 Q327.5877,174.5052 327.8638,174.7619 Q328.1398,175.0138 328.6339,175.0138 Q328.9245,175.0138 329.128,174.9363 Q329.2491,174.8878 329.3798,174.7522 Q329.4622,174.6699 329.5058,174.6456 Q329.5542,174.6214 329.6172,174.6214 Q329.7189,174.6214 329.7964,174.7038 Q329.8788,174.7813 329.8788,174.8878 Q329.8788,174.9944 329.7722,175.1203 Q329.6172,175.2996 329.3702,175.4013 Q329.0359,175.5417 328.6339,175.5417 Q328.1641,175.5417 327.7911,175.348 Q327.4859,175.193 327.2728,174.8636 Q327.0597,174.5294 327.0597,174.1322 L327.0597,173.7738 Q327.0597,173.3621 327.2486,173.0085 Q327.4423,172.65 327.7814,172.4611 Q328.1205,172.2674 328.5031,172.2674 Q328.7308,172.2674 328.9294,172.3206 Q329.1328,172.3691 329.3023,172.4805 Z " fill="#000000"/><text fill="#000000" font-family="sans-serif" font-size="4.34" lengthAdjust="spacing" textLength="57.35" x="332.785" y="175.5563">ChatNoteAdapter$ViewHolder</text><line style="stroke:#181818;stroke-width:0.155;" x1="324.105" x2="390.755" y1="178.7192" y2="178.7192"/><polygon fill="none" points="327.205,182.0705,325.965,183.9305,328.445,183.9305" style="stroke:#1963A0;stroke-width:0.31;"/><text fill="#000000" font-family="sans-serif" font-size="4.34" lengthAdjust="spacing" textLength="30.07" x="329.995" y="184.6425">TextView tvTitle</text><line style="stroke:#181818;stroke-width:0.155;" x1="324.105" x2="390.755" y1="186.9718" y2="186.9718"/><ellipse cx="327.205" cy="191.563" fill="#84BE84" rx="0.93" ry="0.93" style="stroke:#038048;stroke-width:0.31;"/><text fill="#000000" font-family="sans-serif" font-size="4.34" lengthAdjust="spacing" textLength="51.77" x="329.995" y="192.8951">&#171;Create&#187; ViewHolder(View)</text></g><!--class Adapter--><g id="elem_Adapter"><rect fill="#F1F1F1" height="14.88" id="Adapter" rx="0.775" ry="0.775" style="stroke:#181818;stroke-width:0.155;" width="25.42" x="252.34" y="41.2342"/><ellipse cx="256.99" cy="46.1942" fill="#ADD1B2" rx="3.41" ry="3.41" style="stroke:#181818;stroke-width:0.31;"/><path d="M257.8473,44.9155 Q257.8958,44.8477 257.9539,44.8138 Q258.012,44.7799 258.0798,44.7799 Q258.1961,44.7799 258.2688,44.8622 Q258.3414,44.9397 258.3414,45.1286 L258.3414,45.5791 Q258.3414,45.768 258.2688,45.8503 Q258.1961,45.9327 258.0798,45.9327 Q257.9733,45.9327 257.9103,45.8697 Q257.8473,45.8116 257.8134,45.6517 Q257.7989,45.5403 257.7408,45.4822 Q257.6391,45.366 257.4502,45.2981 Q257.2613,45.2303 257.0675,45.2303 Q256.8302,45.2303 256.6316,45.3321 Q256.4378,45.4338 256.2828,45.6663 Q256.1327,45.8988 256.1327,46.2185 L256.1327,46.5575 Q256.1327,46.9402 256.4088,47.1969 Q256.6848,47.4488 257.1789,47.4488 Q257.4695,47.4488 257.673,47.3713 Q257.7941,47.3228 257.9248,47.1872 Q258.0072,47.1049 258.0508,47.0806 Q258.0992,47.0564 258.1622,47.0564 Q258.2639,47.0564 258.3414,47.1388 Q258.4238,47.2163 258.4238,47.3228 Q258.4238,47.4294 258.3172,47.5553 Q258.1622,47.7346 257.9152,47.8363 Q257.5809,47.9767 257.1789,47.9767 Q256.7091,47.9767 256.3361,47.783 Q256.0309,47.628 255.8178,47.2986 Q255.6047,46.9644 255.6047,46.5672 L255.6047,46.2088 Q255.6047,45.7971 255.7936,45.4435 Q255.9873,45.085 256.3264,44.8961 Q256.6655,44.7024 257.0481,44.7024 Q257.2758,44.7024 257.4744,44.7556 Q257.6778,44.8041 257.8473,44.9155 Z " fill="#000000"/><text fill="#000000" font-family="sans-serif" font-size="4.34" lengthAdjust="spacing" textLength="15.5" x="261.33" y="47.9913">Adapter</text><line style="stroke:#181818;stroke-width:0.155;" x1="252.65" x2="277.45" y1="51.1542" y2="51.1542"/><line style="stroke:#181818;stroke-width:0.155;" x1="252.65" x2="277.45" y1="53.6342" y2="53.6342"/></g><!--class ViewHolder--><g id="elem_ViewHolder"><rect fill="#F1F1F1" height="14.88" id="ViewHolder" rx="0.775" ry="0.775" style="stroke:#181818;stroke-width:0.155;" width="31.62" x="167.71" y="103.5442"/><ellipse cx="172.36" cy="108.5042" fill="#ADD1B2" rx="3.41" ry="3.41" style="stroke:#181818;stroke-width:0.31;"/><path d="M173.2173,107.2255 Q173.2658,107.1577 173.3239,107.1238 Q173.382,107.0899 173.4498,107.0899 Q173.5661,107.0899 173.6388,107.1722 Q173.7114,107.2497 173.7114,107.4386 L173.7114,107.8891 Q173.7114,108.078 173.6388,108.1603 Q173.5661,108.2427 173.4498,108.2427 Q173.3433,108.2427 173.2803,108.1797 Q173.2173,108.1216 173.1834,107.9617 Q173.1689,107.8503 173.1108,107.7922 Q173.0091,107.676 172.8202,107.6081 Q172.6313,107.5403 172.4375,107.5403 Q172.2002,107.5403 172.0016,107.6421 Q171.8078,107.7438 171.6528,107.9763 Q171.5027,108.2088 171.5027,108.5285 L171.5027,108.8675 Q171.5027,109.2502 171.7788,109.5069 Q172.0548,109.7588 172.5489,109.7588 Q172.8395,109.7588 173.043,109.6813 Q173.1641,109.6328 173.2948,109.4972 Q173.3772,109.4149 173.4208,109.3906 Q173.4692,109.3664 173.5322,109.3664 Q173.6339,109.3664 173.7114,109.4488 Q173.7938,109.5263 173.7938,109.6328 Q173.7938,109.7394 173.6872,109.8653 Q173.5322,110.0446 173.2852,110.1463 Q172.9509,110.2867 172.5489,110.2867 Q172.0791,110.2867 171.7061,110.093 Q171.4009,109.938 171.1878,109.6086 Q170.9747,109.2744 170.9747,108.8772 L170.9747,108.5188 Q170.9747,108.1071 171.1636,107.7535 Q171.3573,107.395 171.6964,107.2061 Q172.0355,107.0124 172.4181,107.0124 Q172.6458,107.0124 172.8444,107.0656 Q173.0478,107.1141 173.2173,107.2255 Z " fill="#000000"/><text fill="#000000" font-family="sans-serif" font-size="4.34" lengthAdjust="spacing" textLength="21.7" x="176.7" y="110.3013">ViewHolder</text><line style="stroke:#181818;stroke-width:0.155;" x1="168.02" x2="199.02" y1="113.4642" y2="113.4642"/><line style="stroke:#181818;stroke-width:0.155;" x1="168.02" x2="199.02" y1="115.9442" y2="115.9442"/></g><!--reverse link Adapter to ViewPagerAdapter--><g id="link_Adapter_ViewPagerAdapter"><path codeLine="53" d="M246.8335,52.3208 C227.1764,56.0594 193.9112,63.1822 162.44,74.7142 C153.5368,77.9785 144.2833,81.9961 135.47,86.1501 " fill="none" id="Adapter-backto-ViewPagerAdapter" style="stroke:#181818;stroke-width:0.31;"/><polygon fill="none" points="252.3152,51.2782,246.4859,50.4936,247.181,54.1481,252.3152,51.2782" style="stroke:#181818;stroke-width:0.31;"/></g><!--reverse link ViewPagerAdapter to ViewPagerAdapter$ViewHolder--><g id="link_ViewPagerAdapter_ViewPagerAdapter$ViewHolder"><path codeLine="54" d="M93.1686,140.7233 C94.483,150.6805 95.3188,156.9789 96.4875,165.8263 " fill="none" id="ViewPagerAdapter-backto-ViewPagerAdapter$ViewHolder" style="stroke:#181818;stroke-width:0.31;stroke-dasharray:7.0,7.0;"/><ellipse cx="92.8441" cy="138.2646" fill="#FFFFFF" rx="2.48" ry="2.48" style="stroke:#181818;stroke-width:0.31;"/><line style="stroke:#181818;stroke-width:0.31;" x1="93.1686" x2="92.5195" y1="140.7233" y2="135.8059"/><line style="stroke:#181818;stroke-width:0.31;" x1="90.3854" x2="95.3027" y1="138.5892" y2="137.9401"/></g><!--reverse link ViewHolder to ViewPagerAdapter$ViewHolder--><g id="link_ViewHolder_ViewPagerAdapter$ViewHolder"><path codeLine="55" d="M178.4826,123.6803 C175.1098,131.5512 171.0332,138.9648 162.44,147.2542 C154.1475,155.2553 143.623,161.9327 133.5232,167.2089 " fill="none" id="ViewHolder-backto-ViewPagerAdapter$ViewHolder" style="stroke:#181818;stroke-width:0.31;"/><polygon fill="none" points="180.6804,118.5513,176.7729,122.9477,180.1922,124.4129,180.6804,118.5513" style="stroke:#181818;stroke-width:0.31;"/></g><!--reverse link Adapter to ChatAdapter--><g id="link_Adapter_ChatAdapter"><path codeLine="56" d="M265.05,61.7624 C265.05,66.5302 265.05,67.5997 265.05,74.6212 " fill="none" id="Adapter-backto-ChatAdapter" style="stroke:#181818;stroke-width:0.31;"/><polygon fill="none" points="265.05,56.1824,263.19,61.7624,266.91,61.7624,265.05,56.1824" style="stroke:#181818;stroke-width:0.31;"/></g><!--reverse link ChatAdapter to ChatAdapter$ViewHolder--><g id="link_ChatAdapter_ChatAdapter$ViewHolder"><path codeLine="57" d="M237.4936,151.3917 C232.1957,159.1014 229.7441,162.6705 225.5343,168.793 " fill="none" id="ChatAdapter-backto-ChatAdapter$ViewHolder" style="stroke:#181818;stroke-width:0.31;stroke-dasharray:7.0,7.0;"/><ellipse cx="238.8982" cy="149.3478" fill="#FFFFFF" rx="2.48" ry="2.48" style="stroke:#181818;stroke-width:0.31;"/><line style="stroke:#181818;stroke-width:0.31;" x1="237.4936" x2="240.3027" y1="151.3917" y2="147.3038"/><line style="stroke:#181818;stroke-width:0.31;" x1="236.8542" x2="240.9421" y1="147.9432" y2="150.7523"/></g><!--reverse link ViewHolder to ChatAdapter$ViewHolder--><g id="link_ViewHolder_ChatAdapter$ViewHolder"><path codeLine="58" d="M189.2624,123.4779 C194.8114,135.2517 203.5894,153.8727 210.5706,168.6783 " fill="none" id="ViewHolder-backto-ChatAdapter$ViewHolder" style="stroke:#181818;stroke-width:0.31;"/><polygon fill="none" points="186.8835,118.4304,187.5799,124.2709,190.9449,122.685,186.8835,118.4304" style="stroke:#181818;stroke-width:0.31;"/></g><!--reverse link Adapter to ChatNoteAdapter--><g id="link_Adapter_ChatNoteAdapter"><path codeLine="59" d="M283.0227,56.054 C295.3731,60.9861 309.3521,66.8433 325.5,74.7142 C329.2138,76.5246 333.0175,78.4435 336.8274,80.4182 " fill="none" id="Adapter-backto-ChatNoteAdapter" style="stroke:#181818;stroke-width:0.31;"/><polygon fill="none" points="277.8406,53.9845,282.3329,57.7813,283.7125,54.3266,277.8406,53.9845" style="stroke:#181818;stroke-width:0.31;"/></g><!--reverse link ChatNoteAdapter to ChatNoteAdapter$ViewHolder--><g id="link_ChatNoteAdapter_ChatNoteAdapter$ViewHolder"><path codeLine="60" d="M374.2251,146.0336 C369.7301,155.5692 367.1175,161.1112 363.5153,168.7558 " fill="none" id="ChatNoteAdapter-backto-ChatNoteAdapter$ViewHolder" style="stroke:#181818;stroke-width:0.31;stroke-dasharray:7.0,7.0;"/><ellipse cx="375.2825" cy="143.7904" fill="#FFFFFF" rx="2.48" ry="2.48" style="stroke:#181818;stroke-width:0.31;"/><line style="stroke:#181818;stroke-width:0.31;" x1="374.2251" x2="376.34" y1="146.0336" y2="141.5471"/><line style="stroke:#181818;stroke-width:0.31;" x1="373.0393" x2="377.5258" y1="142.7329" y2="144.8478"/></g><!--reverse link ViewHolder to ChatNoteAdapter$ViewHolder--><g id="link_ViewHolder_ChatNoteAdapter$ViewHolder"><path codeLine="61" d="M187.7324,123.6692 C190.758,131.9183 194.9776,140.0405 204.91,147.2542 C223.5937,160.8198 284.8032,171.552 323.764,177.225 " fill="none" id="ViewHolder-backto-ChatNoteAdapter$ViewHolder" style="stroke:#181818;stroke-width:0.31;"/><polygon fill="none" points="185.8109,118.4304,185.9861,124.3097,189.4786,123.0287,185.8109,118.4304" style="stroke:#181818;stroke-width:0.31;"/></g><!--SRC=[lLJRReCm37tFLqJg7kYDBq187GzRfLqg3Uqz1Q_B10aYRjUgsxvzuTAEbb3eAlK9opR7FZwnWuWfHGCPsx1cSHA1pP75IyK3-vN3vumj89s4B458wPOCw2HDsUQ1AtHUCELYuT94foWVrdWGVPv_G81bz4aYA3AaZkEbm11Sbnw3MpNWKGsiho6o_-vb5Efsf2ZG_bnMPjwbSfcCkC0iVILvg1DlkGYFqWfpbwS_T04uHOWzkHHezSat8IJeFfsRIcTRyaDppfcFYfsblTcSSYUkfk9DrcTIwJ1luKG7tZj3ipIFe9HkpQLnOIWTzQH0NLn3vL_joJWhYFHa8Pn9nP5BGNgq6Fy-aYjxq6QbhbMYZkgrhoDM5lGt2LZDEWuAt40c6rzw4K_cagMXLT1ibRb2zbZXlPRbbEkJ-eUWsRCnYxgBkZGeBPEiFREiDG4hTGmYxcjTT-Kkbwf2gr4kNFaS8-WWbQdAJXpdQppkTXb8j-iwjEspBqqpT4cyUvUjgEt4Axj2MYzM8rtpnbt0z1p0RYGhhunqskIJPCrlzaB2Pj1V]--></g></svg>