<?xml version="1.0" encoding="us-ascii" standalone="no"?><svg xmlns="http://www.w3.org/2000/svg" xmlns:xlink="http://www.w3.org/1999/xlink" contentStyleType="text/css" height="223.2px" preserveAspectRatio="none" style="width:519px;height:223px;background:#FFFFFF;" version="1.1" viewBox="0 0 519 223" width="519.25px" zoomAndPan="magnify"><defs/><g><!--cluster com--><g id="cluster_com"><path d="M2.635,83.3942 L11.935,83.3942 A1.1625,1.1625 0 0 1 12.71,84.1692 L14.88,91.0268 L516.305,91.0268 A0.775,0.775 0 0 1 517.08,91.8018 L517.08,220.2592 A0.775,0.775 0 0 1 516.305,221.0342 L2.635,221.0342 A0.775,0.775 0 0 1 1.86,220.2592 L1.86,84.1692 A0.775,0.775 0 0 1 2.635,83.3942 " fill="none" style="stroke:#000000;stroke-width:0.46499999999999997;"/><line style="stroke:#000000;stroke-width:0.46499999999999997;" x1="1.86" x2="14.88" y1="91.0268" y2="91.0268"/><text fill="#000000" font-family="sans-serif" font-size="4.34" font-weight="bold" lengthAdjust="spacing" textLength="8.99" x="3.1" y="88.6975">com</text></g><!--cluster example--><g id="cluster_example"><path d="M10.075,97.3442 L28.675,97.3442 A1.1625,1.1625 0 0 1 29.45,98.1192 L31.62,104.9768 L508.865,104.9768 A0.775,0.775 0 0 1 509.64,105.7518 L509.64,212.8192 A0.775,0.775 0 0 1 508.865,213.5942 L10.075,213.5942 A0.775,0.775 0 0 1 9.3,212.8192 L9.3,98.1192 A0.775,0.775 0 0 1 10.075,97.3442 " fill="none" style="stroke:#000000;stroke-width:0.46499999999999997;"/><line style="stroke:#000000;stroke-width:0.46499999999999997;" x1="9.3" x2="31.62" y1="104.9768" y2="104.9768"/><text fill="#000000" font-family="sans-serif" font-size="4.34" font-weight="bold" lengthAdjust="spacing" textLength="18.29" x="10.54" y="102.6475">example</text></g><!--cluster itamusic--><g id="cluster_itamusic"><path d="M17.515,111.2942 L35.805,111.2942 A1.1625,1.1625 0 0 1 36.58,112.0692 L38.75,118.9268 L501.425,118.9268 A0.775,0.775 0 0 1 502.2,119.7018 L502.2,205.3792 A0.775,0.775 0 0 1 501.425,206.1542 L17.515,206.1542 A0.775,0.775 0 0 1 16.74,205.3792 L16.74,112.0692 A0.775,0.775 0 0 1 17.515,111.2942 " fill="none" style="stroke:#000000;stroke-width:0.46499999999999997;"/><line style="stroke:#000000;stroke-width:0.46499999999999997;" x1="16.74" x2="38.75" y1="118.9268" y2="118.9268"/><text fill="#000000" font-family="sans-serif" font-size="4.34" font-weight="bold" lengthAdjust="spacing" textLength="17.98" x="17.98" y="116.5975">itamusic</text></g><!--cluster androidx--><g id="cluster_androidx"><path d="M225.835,1.8642 L245.365,1.8642 A1.1625,1.1625 0 0 1 246.14,2.6392 L248.31,9.4968 L293.105,9.4968 A0.775,0.775 0 0 1 293.88,10.2718 L293.88,75.1792 A0.775,0.775 0 0 1 293.105,75.9542 L225.835,75.9542 A0.775,0.775 0 0 1 225.06,75.1792 L225.06,2.6392 A0.775,0.775 0 0 1 225.835,1.8642 " fill="none" style="stroke:#000000;stroke-width:0.46499999999999997;"/><line style="stroke:#000000;stroke-width:0.46499999999999997;" x1="225.06" x2="248.31" y1="9.4968" y2="9.4968"/><text fill="#000000" font-family="sans-serif" font-size="4.34" font-weight="bold" lengthAdjust="spacing" textLength="19.22" x="226.3" y="7.1675">androidx</text></g><!--cluster fragment--><g id="cluster_fragment"><path d="M233.275,15.8142 L253.115,15.8142 A1.1625,1.1625 0 0 1 253.89,16.5892 L256.06,23.4468 L285.665,23.4468 A0.775,0.775 0 0 1 286.44,24.2218 L286.44,67.7392 A0.775,0.775 0 0 1 285.665,68.5142 L233.275,68.5142 A0.775,0.775 0 0 1 232.5,67.7392 L232.5,16.5892 A0.775,0.775 0 0 1 233.275,15.8142 " fill="none" style="stroke:#000000;stroke-width:0.46499999999999997;"/><line style="stroke:#000000;stroke-width:0.46499999999999997;" x1="232.5" x2="256.06" y1="23.4468" y2="23.4468"/><text fill="#000000" font-family="sans-serif" font-size="4.34" font-weight="bold" lengthAdjust="spacing" textLength="19.53" x="233.74" y="21.1175">fragment</text></g><!--cluster app--><g id="cluster_app"><path d="M240.715,29.7642 L249.085,29.7642 A1.1625,1.1625 0 0 1 249.86,30.5392 L252.03,37.3968 L278.225,37.3968 A0.775,0.775 0 0 1 279,38.1718 L279,60.2992 A0.775,0.775 0 0 1 278.225,61.0742 L240.715,61.0742 A0.775,0.775 0 0 1 239.94,60.2992 L239.94,30.5392 A0.775,0.775 0 0 1 240.715,29.7642 " fill="none" style="stroke:#000000;stroke-width:0.46499999999999997;"/><line style="stroke:#000000;stroke-width:0.46499999999999997;" x1="239.94" x2="252.03" y1="37.3968" y2="37.3968"/><text fill="#000000" font-family="sans-serif" font-size="4.34" font-weight="bold" lengthAdjust="spacing" textLength="8.06" x="241.18" y="35.0675">app</text></g><!--class HomeFragment--><g id="elem_HomeFragment"><rect codeLine="1" fill="#F1F1F1" height="78.3779" id="HomeFragment" rx="0.775" ry="0.775" style="stroke:#181818;stroke-width:0.155;" width="110.67" x="386.415" y="122.7642"/><ellipse cx="425.3975" cy="127.7242" fill="#ADD1B2" rx="3.41" ry="3.41" style="stroke:#181818;stroke-width:0.31;"/><path d="M426.2548,126.4455 Q426.3033,126.3777 426.3614,126.3438 Q426.4195,126.3099 426.4873,126.3099 Q426.6036,126.3099 426.6763,126.3922 Q426.7489,126.4697 426.7489,126.6586 L426.7489,127.1091 Q426.7489,127.298 426.6763,127.3803 Q426.6036,127.4627 426.4873,127.4627 Q426.3808,127.4627 426.3178,127.3997 Q426.2548,127.3416 426.2209,127.1817 Q426.2064,127.0703 426.1483,127.0122 Q426.0466,126.896 425.8577,126.8281 Q425.6688,126.7603 425.475,126.7603 Q425.2377,126.7603 425.0391,126.8621 Q424.8453,126.9638 424.6903,127.1963 Q424.5402,127.4288 424.5402,127.7485 L424.5402,128.0875 Q424.5402,128.4702 424.8163,128.7269 Q425.0923,128.9788 425.5864,128.9788 Q425.877,128.9788 426.0805,128.9013 Q426.2016,128.8528 426.3323,128.7172 Q426.4147,128.6349 426.4583,128.6106 Q426.5067,128.5864 426.5697,128.5864 Q426.6714,128.5864 426.7489,128.6688 Q426.8313,128.7463 426.8313,128.8528 Q426.8313,128.9594 426.7247,129.0853 Q426.5697,129.2646 426.3227,129.3663 Q425.9884,129.5067 425.5864,129.5067 Q425.1166,129.5067 424.7436,129.313 Q424.4384,129.158 424.2253,128.8286 Q424.0122,128.4944 424.0122,128.0972 L424.0122,127.7388 Q424.0122,127.3271 424.2011,126.9735 Q424.3948,126.615 424.7339,126.4261 Q425.073,126.2324 425.4556,126.2324 Q425.6833,126.2324 425.8819,126.2856 Q426.0853,126.3341 426.2548,126.4455 Z " fill="#000000"/><text fill="#000000" font-family="sans-serif" font-size="4.34" lengthAdjust="spacing" textLength="30.07" x="431.7525" y="129.5213">HomeFragment</text><line style="stroke:#181818;stroke-width:0.155;" x1="386.725" x2="496.775" y1="132.6842" y2="132.6842"/><ellipse cx="389.825" cy="137.2755" fill="#000000" rx="0.93" ry="0.93" style="stroke:#000000;stroke-width:0.31;"/><text fill="#000000" font-family="sans-serif" font-size="4.34" lengthAdjust="spacing" textLength="61.07" x="392.615" y="138.6075">ImageButton btnChatBotActivity</text><ellipse cx="389.825" cy="143.048" fill="#000000" rx="0.93" ry="0.93" style="stroke:#000000;stroke-width:0.31;"/><text fill="#000000" font-family="sans-serif" font-size="4.34" lengthAdjust="spacing" textLength="43.09" x="392.615" y="144.3801">ImageView ivProfilePic</text><ellipse cx="389.825" cy="148.8206" fill="#000000" rx="0.93" ry="0.93" style="stroke:#000000;stroke-width:0.31;"/><text fill="#000000" font-family="sans-serif" font-size="4.34" lengthAdjust="spacing" textLength="49.29" x="392.615" y="150.1526">TextView tvCurrentStreak</text><ellipse cx="389.825" cy="154.5931" fill="#000000" rx="0.93" ry="0.93" style="stroke:#000000;stroke-width:0.31;"/><text fill="#000000" font-family="sans-serif" font-size="4.34" lengthAdjust="spacing" textLength="65.72" x="392.615" y="155.9252">LinearLayout dailyMissionsLayout</text><ellipse cx="389.825" cy="160.3657" fill="#000000" rx="0.93" ry="0.93" style="stroke:#000000;stroke-width:0.31;"/><text fill="#000000" font-family="sans-serif" font-size="4.34" lengthAdjust="spacing" textLength="18.6" x="392.615" y="161.6977">User user</text><ellipse cx="389.825" cy="166.1382" fill="#000000" rx="0.93" ry="0.93" style="stroke:#000000;stroke-width:0.31;"/><text fill="#000000" font-family="sans-serif" font-size="4.34" lengthAdjust="spacing" textLength="59.52" x="392.615" y="167.4702">FirebaseHelper firebaseHelper</text><line style="stroke:#181818;stroke-width:0.155;" x1="386.725" x2="496.775" y1="169.7995" y2="169.7995"/><ellipse cx="389.825" cy="174.3907" fill="#84BE84" rx="0.93" ry="0.93" style="stroke:#038048;stroke-width:0.31;"/><text fill="#000000" font-family="sans-serif" font-size="4.34" lengthAdjust="spacing" textLength="42.78" x="392.615" y="175.7228">void onCreate(Bundle)</text><ellipse cx="389.825" cy="180.1633" fill="#84BE84" rx="0.93" ry="0.93" style="stroke:#038048;stroke-width:0.31;"/><text fill="#000000" font-family="sans-serif" font-size="4.34" lengthAdjust="spacing" textLength="102.61" x="392.615" y="181.4953">View onCreateView(LayoutInflater,ViewGroup,Bundle)</text><ellipse cx="389.825" cy="185.9358" fill="#84BE84" rx="0.93" ry="0.93" style="stroke:#038048;stroke-width:0.31;"/><text fill="#000000" font-family="sans-serif" font-size="4.34" lengthAdjust="spacing" textLength="31.93" x="392.615" y="187.2679">void onResume()</text><ellipse cx="389.825" cy="191.7084" fill="#000000" rx="0.93" ry="0.93" style="stroke:#000000;stroke-width:0.31;"/><text fill="#000000" font-family="sans-serif" font-size="4.34" lengthAdjust="spacing" textLength="62.93" x="392.615" y="193.0404">void loadUserDataAndUpdateUI()</text><ellipse cx="389.825" cy="197.4809" fill="#000000" rx="0.93" ry="0.93" style="stroke:#000000;stroke-width:0.31;"/><text fill="#000000" font-family="sans-serif" font-size="4.34" lengthAdjust="spacing" textLength="64.17" x="392.615" y="198.8129">void updateDailyMissionsLayout()</text></g><!--class InstrumentsFragment--><g id="elem_InstrumentsFragment"><rect codeLine="15" fill="#F1F1F1" height="26.4251" id="InstrumentsFragment" rx="0.775" ry="0.775" style="stroke:#181818;stroke-width:0.155;" width="110.67" x="264.895" y="148.8042"/><ellipse cx="298.1425" cy="153.7642" fill="#ADD1B2" rx="3.41" ry="3.41" style="stroke:#181818;stroke-width:0.31;"/><path d="M298.9998,152.4855 Q299.0483,152.4177 299.1064,152.3838 Q299.1645,152.3499 299.2323,152.3499 Q299.3486,152.3499 299.4213,152.4322 Q299.4939,152.5097 299.4939,152.6986 L299.4939,153.1491 Q299.4939,153.338 299.4213,153.4203 Q299.3486,153.5027 299.2323,153.5027 Q299.1258,153.5027 299.0628,153.4397 Q298.9998,153.3816 298.9659,153.2217 Q298.9514,153.1103 298.8933,153.0522 Q298.7916,152.936 298.6027,152.8681 Q298.4138,152.8003 298.22,152.8003 Q297.9827,152.8003 297.7841,152.9021 Q297.5903,153.0038 297.4353,153.2363 Q297.2852,153.4688 297.2852,153.7885 L297.2852,154.1275 Q297.2852,154.5102 297.5613,154.7669 Q297.8373,155.0188 298.3314,155.0188 Q298.622,155.0188 298.8255,154.9413 Q298.9466,154.8928 299.0773,154.7572 Q299.1597,154.6749 299.2033,154.6506 Q299.2517,154.6264 299.3147,154.6264 Q299.4164,154.6264 299.4939,154.7088 Q299.5763,154.7863 299.5763,154.8928 Q299.5763,154.9994 299.4697,155.1253 Q299.3147,155.3046 299.0677,155.4063 Q298.7334,155.5467 298.3314,155.5467 Q297.8616,155.5467 297.4886,155.353 Q297.1834,155.198 296.9703,154.8686 Q296.7572,154.5344 296.7572,154.1372 L296.7572,153.7788 Q296.7572,153.3671 296.9461,153.0135 Q297.1398,152.655 297.4789,152.4661 Q297.818,152.2724 298.2006,152.2724 Q298.4283,152.2724 298.6269,152.3256 Q298.8303,152.3741 298.9998,152.4855 Z " fill="#000000"/><text fill="#000000" font-family="sans-serif" font-size="4.34" lengthAdjust="spacing" textLength="41.54" x="304.4975" y="155.5613">InstrumentsFragment</text><line style="stroke:#181818;stroke-width:0.155;" x1="265.205" x2="375.255" y1="158.7242" y2="158.7242"/><ellipse cx="268.305" cy="163.3155" fill="#000000" rx="0.93" ry="0.93" style="stroke:#000000;stroke-width:0.31;"/><text fill="#000000" font-family="sans-serif" font-size="4.34" lengthAdjust="spacing" textLength="57.97" x="271.095" y="164.6475">FrameLayout btnPianoActivity</text><line style="stroke:#181818;stroke-width:0.155;" x1="265.205" x2="375.255" y1="166.9768" y2="166.9768"/><ellipse cx="268.305" cy="171.568" fill="#84BE84" rx="0.93" ry="0.93" style="stroke:#038048;stroke-width:0.31;"/><text fill="#000000" font-family="sans-serif" font-size="4.34" lengthAdjust="spacing" textLength="102.61" x="271.095" y="172.9001">View onCreateView(LayoutInflater,ViewGroup,Bundle)</text></g><!--class ExercisesFragment--><g id="elem_ExercisesFragment"><rect codeLine="20" fill="#F1F1F1" height="26.4251" id="ExercisesFragment" rx="0.775" ry="0.775" style="stroke:#181818;stroke-width:0.155;" width="110.67" x="143.375" y="148.8042"/><ellipse cx="178.6375" cy="153.7642" fill="#ADD1B2" rx="3.41" ry="3.41" style="stroke:#181818;stroke-width:0.31;"/><path d="M179.4948,152.4855 Q179.5433,152.4177 179.6014,152.3838 Q179.6595,152.3499 179.7273,152.3499 Q179.8436,152.3499 179.9163,152.4322 Q179.9889,152.5097 179.9889,152.6986 L179.9889,153.1491 Q179.9889,153.338 179.9163,153.4203 Q179.8436,153.5027 179.7273,153.5027 Q179.6208,153.5027 179.5578,153.4397 Q179.4948,153.3816 179.4609,153.2217 Q179.4464,153.1103 179.3883,153.0522 Q179.2866,152.936 179.0977,152.8681 Q178.9088,152.8003 178.715,152.8003 Q178.4777,152.8003 178.2791,152.9021 Q178.0853,153.0038 177.9303,153.2363 Q177.7802,153.4688 177.7802,153.7885 L177.7802,154.1275 Q177.7802,154.5102 178.0563,154.7669 Q178.3323,155.0188 178.8264,155.0188 Q179.117,155.0188 179.3205,154.9413 Q179.4416,154.8928 179.5723,154.7572 Q179.6547,154.6749 179.6983,154.6506 Q179.7467,154.6264 179.8097,154.6264 Q179.9114,154.6264 179.9889,154.7088 Q180.0713,154.7863 180.0713,154.8928 Q180.0713,154.9994 179.9647,155.1253 Q179.8097,155.3046 179.5627,155.4063 Q179.2284,155.5467 178.8264,155.5467 Q178.3566,155.5467 177.9836,155.353 Q177.6784,155.198 177.4653,154.8686 Q177.2522,154.5344 177.2522,154.1372 L177.2522,153.7788 Q177.2522,153.3671 177.4411,153.0135 Q177.6348,152.655 177.9739,152.4661 Q178.313,152.2724 178.6956,152.2724 Q178.9233,152.2724 179.1219,152.3256 Q179.3253,152.3741 179.4948,152.4855 Z " fill="#000000"/><text fill="#000000" font-family="sans-serif" font-size="4.34" lengthAdjust="spacing" textLength="37.51" x="184.9925" y="155.5613">ExercisesFragment</text><line style="stroke:#181818;stroke-width:0.155;" x1="143.685" x2="253.735" y1="158.7242" y2="158.7242"/><ellipse cx="146.785" cy="163.3155" fill="#000000" rx="0.93" ry="0.93" style="stroke:#000000;stroke-width:0.31;"/><text fill="#000000" font-family="sans-serif" font-size="4.34" lengthAdjust="spacing" textLength="63.24" x="149.575" y="164.6475">FrameLayout btnIntervalsActivity</text><line style="stroke:#181818;stroke-width:0.155;" x1="143.685" x2="253.735" y1="166.9768" y2="166.9768"/><ellipse cx="146.785" cy="171.568" fill="#84BE84" rx="0.93" ry="0.93" style="stroke:#038048;stroke-width:0.31;"/><text fill="#000000" font-family="sans-serif" font-size="4.34" lengthAdjust="spacing" textLength="102.61" x="149.575" y="172.9001">View onCreateView(LayoutInflater,ViewGroup,Bundle)</text></g><!--class LessonsFragment--><g id="elem_LessonsFragment"><rect codeLine="25" fill="#F1F1F1" height="32.1976" id="LessonsFragment" rx="0.775" ry="0.775" style="stroke:#181818;stroke-width:0.155;" width="110.67" x="21.855" y="145.8592"/><ellipse cx="58.2025" cy="150.8192" fill="#ADD1B2" rx="3.41" ry="3.41" style="stroke:#181818;stroke-width:0.31;"/><path d="M59.0598,149.5405 Q59.1083,149.4727 59.1664,149.4388 Q59.2245,149.4049 59.2923,149.4049 Q59.4086,149.4049 59.4813,149.4872 Q59.5539,149.5647 59.5539,149.7536 L59.5539,150.2041 Q59.5539,150.393 59.4813,150.4753 Q59.4086,150.5577 59.2923,150.5577 Q59.1858,150.5577 59.1228,150.4947 Q59.0598,150.4366 59.0259,150.2767 Q59.0114,150.1653 58.9533,150.1072 Q58.8516,149.991 58.6627,149.9231 Q58.4738,149.8553 58.28,149.8553 Q58.0427,149.8553 57.8441,149.9571 Q57.6503,150.0588 57.4953,150.2913 Q57.3452,150.5238 57.3452,150.8435 L57.3452,151.1825 Q57.3452,151.5652 57.6212,151.8219 Q57.8973,152.0738 58.3914,152.0738 Q58.682,152.0738 58.8855,151.9963 Q59.0066,151.9478 59.1373,151.8122 Q59.2197,151.7299 59.2633,151.7056 Q59.3117,151.6814 59.3747,151.6814 Q59.4764,151.6814 59.5539,151.7638 Q59.6363,151.8413 59.6363,151.9478 Q59.6363,152.0544 59.5297,152.1803 Q59.3747,152.3596 59.1277,152.4613 Q58.7934,152.6017 58.3914,152.6017 Q57.9216,152.6017 57.5486,152.408 Q57.2434,152.253 57.0303,151.9236 Q56.8172,151.5894 56.8172,151.1922 L56.8172,150.8338 Q56.8172,150.4221 57.0061,150.0685 Q57.1998,149.71 57.5389,149.5211 Q57.878,149.3274 58.2606,149.3274 Q58.4883,149.3274 58.6869,149.3806 Q58.8903,149.4291 59.0598,149.5405 Z " fill="#000000"/><text fill="#000000" font-family="sans-serif" font-size="4.34" lengthAdjust="spacing" textLength="35.34" x="64.5575" y="152.6163">LessonsFragment</text><line style="stroke:#181818;stroke-width:0.155;" x1="22.165" x2="132.215" y1="155.7792" y2="155.7792"/><ellipse cx="25.265" cy="160.3705" fill="#000000" rx="0.93" ry="0.93" style="stroke:#000000;stroke-width:0.31;"/><text fill="#000000" font-family="sans-serif" font-size="4.34" lengthAdjust="spacing" textLength="61.07" x="28.055" y="161.7025">ImageButton btnChatBotActivity</text><ellipse cx="25.265" cy="166.143" fill="#000000" rx="0.93" ry="0.93" style="stroke:#000000;stroke-width:0.31;"/><text fill="#000000" font-family="sans-serif" font-size="4.34" lengthAdjust="spacing" textLength="63.24" x="28.055" y="167.4751">FrameLayout btnIntervalsActivity</text><line style="stroke:#181818;stroke-width:0.155;" x1="22.165" x2="132.215" y1="169.8043" y2="169.8043"/><ellipse cx="25.265" cy="174.3956" fill="#84BE84" rx="0.93" ry="0.93" style="stroke:#038048;stroke-width:0.31;"/><text fill="#000000" font-family="sans-serif" font-size="4.34" lengthAdjust="spacing" textLength="102.61" x="28.055" y="175.7276">View onCreateView(LayoutInflater,ViewGroup,Bundle)</text></g><!--class Fragment--><g id="elem_Fragment"><rect fill="#F1F1F1" height="14.88" id="Fragment" rx="0.775" ry="0.775" style="stroke:#181818;stroke-width:0.155;" width="28.83" x="245.055" y="41.2342"/><ellipse cx="249.705" cy="46.1942" fill="#ADD1B2" rx="3.41" ry="3.41" style="stroke:#181818;stroke-width:0.31;"/><path d="M250.5623,44.9155 Q250.6108,44.8477 250.6689,44.8138 Q250.727,44.7799 250.7948,44.7799 Q250.9111,44.7799 250.9838,44.8622 Q251.0564,44.9397 251.0564,45.1286 L251.0564,45.5791 Q251.0564,45.768 250.9838,45.8503 Q250.9111,45.9327 250.7948,45.9327 Q250.6883,45.9327 250.6253,45.8697 Q250.5623,45.8116 250.5284,45.6517 Q250.5139,45.5403 250.4558,45.4822 Q250.3541,45.366 250.1652,45.2981 Q249.9763,45.2303 249.7825,45.2303 Q249.5452,45.2303 249.3466,45.3321 Q249.1528,45.4338 248.9978,45.6663 Q248.8477,45.8988 248.8477,46.2185 L248.8477,46.5575 Q248.8477,46.9402 249.1238,47.1969 Q249.3998,47.4488 249.8939,47.4488 Q250.1845,47.4488 250.388,47.3713 Q250.5091,47.3228 250.6398,47.1872 Q250.7222,47.1049 250.7658,47.0806 Q250.8142,47.0564 250.8772,47.0564 Q250.9789,47.0564 251.0564,47.1388 Q251.1388,47.2163 251.1388,47.3228 Q251.1388,47.4294 251.0322,47.5553 Q250.8772,47.7346 250.6302,47.8363 Q250.2959,47.9767 249.8939,47.9767 Q249.4241,47.9767 249.0511,47.783 Q248.7459,47.628 248.5328,47.2986 Q248.3197,46.9644 248.3197,46.5672 L248.3197,46.2088 Q248.3197,45.7971 248.5086,45.4435 Q248.7023,45.085 249.0414,44.8961 Q249.3805,44.7024 249.7631,44.7024 Q249.9908,44.7024 250.1894,44.7556 Q250.3928,44.8041 250.5623,44.9155 Z " fill="#000000"/><text fill="#000000" font-family="sans-serif" font-size="4.34" lengthAdjust="spacing" textLength="18.91" x="254.045" y="47.9913">Fragment</text><line style="stroke:#181818;stroke-width:0.155;" x1="245.365" x2="273.575" y1="51.1542" y2="51.1542"/><line style="stroke:#181818;stroke-width:0.155;" x1="245.365" x2="273.575" y1="53.6342" y2="53.6342"/></g><!--reverse link Fragment to HomeFragment--><g id="link_Fragment_HomeFragment"><path codeLine="31" d="M279.4758,50.18 C303.5876,52.071 347.1721,58.2036 380.99,80.9142 C396.7938,91.5255 410.1145,107.6486 420.2205,122.7053 " fill="none" id="Fragment-backto-HomeFragment" style="stroke:#181818;stroke-width:0.31;"/><polygon fill="none" points="273.9129,49.7437,279.3304,52.0343,279.6212,48.3257,273.9129,49.7437" style="stroke:#181818;stroke-width:0.31;"/></g><!--reverse link Fragment to InstrumentsFragment--><g id="link_Fragment_InstrumentsFragment"><path codeLine="32" d="M265.9656,61.0288 C275.9972,79.6319 300.4086,124.9094 313.2643,148.7546 " fill="none" id="Fragment-backto-InstrumentsFragment" style="stroke:#181818;stroke-width:0.31;"/><polygon fill="none" points="263.3171,56.1173,264.3284,61.9116,267.6027,60.1459,263.3171,56.1173" style="stroke:#181818;stroke-width:0.31;"/></g><!--reverse link Fragment to ExercisesFragment--><g id="link_Fragment_ExercisesFragment"><path codeLine="33" d="M252.9744,61.0288 C242.9428,79.6319 218.5314,124.9094 205.6757,148.7546 " fill="none" id="Fragment-backto-ExercisesFragment" style="stroke:#181818;stroke-width:0.31;"/><polygon fill="none" points="255.6229,56.1173,251.3373,60.1459,254.6116,61.9116,255.6229,56.1173" style="stroke:#181818;stroke-width:0.31;"/></g><!--reverse link Fragment to LessonsFragment--><g id="link_Fragment_LessonsFragment"><path codeLine="34" d="M239.4642,50.18 C215.3524,52.071 171.7679,58.2036 137.95,80.9142 C113.2988,97.4682 94.6833,127.4328 84.8997,145.8375 " fill="none" id="Fragment-backto-LessonsFragment" style="stroke:#181818;stroke-width:0.31;"/><polygon fill="none" points="245.0271,49.7437,239.3188,48.3257,239.6096,52.0343,245.0271,49.7437" style="stroke:#181818;stroke-width:0.31;"/></g><!--SRC=[jPFBJiCm44Nt-GelMsZp1Mpwe3HIaIgWxAV9f5Zu4TdZa0huToRfIwLGHAHkeiprvFZwZfCgy5waLiTOWIuKnf901o_JU6erJXoiD1eIxz6LI3IiS1Y8h15BCgCNeA6bGKgobBJUDJnBV1Eod3kRIuLpcVB24rRKw5IEWdCCV2I7yCfBCsaGt0pMDf38GAhrlVHUMkCt6hSiF3eH-C7l4-bm2Hwdg0fMywCokXQbbPcmPiHqmiumc4nXb_LczvrU5vqDFZ6vOiNrQktEsL3q3XzjOG_eWyPEbxTl56KXgpsDWM1WiaMHCM6H71f2eunF3yCjdr6K_fvvOZovK2VkZwBdGkCs98v-Bi7OVV2jJdVUnss5BfKUpxf83ADBKFwIJcReFUVtlujuCQDWCiSJhk9ywoU6eeZtvcu- -ls_VwRsb1-kHtlOoOpRexuDwGi0]--></g></svg>